STARTFONT 2.1
FONT -t-cherry-Medium-R-Normal--11-100-75-75-C-100-ISO10646-1
SIZE 10 75 75
FONTBOUNDINGBOX 6 11 0 -2
STARTPROPERTIES 13
POINT_SIZE 100
PIXEL_SIZE 11
RESOLUTION_X 75
RESOLUTION_Y 75
FONT_ASCENT 9
FONT_DESCENT 2
AVERAGE_WIDTH 100
SPACING "C"
FOUNDRY "t"
FAMILY_NAME "cherry"
CHARSET_ENCODING "1"
CHARSET_REGISTRY "ISO10646"
_GBDFED_INFO "Edited with gbdfed 1.6."
ENDPROPERTIES
CHARS 192
STARTCHAR <control>
ENCODING 0
SWIDTH 576 0
DWIDTH 6 0
BBX 6 11 0 -2
BITMAP
00
00
00
00
00
00
00
00
00
00
00
ENDCHAR
STARTCHAR SPACE
ENCODING 32
SWIDTH 576 0
DWIDTH 6 0
BBX 6 11 0 -2
BITMAP
00
00
00
00
00
00
00
00
00
00
00
ENDCHAR
STARTCHAR EXCLAMATION MARK
ENCODING 33
SWIDTH 576 0
DWIDTH 6 0
BBX 6 11 0 -2
BITMAP
00
10
10
10
10
10
00
10
10
00
00
ENDCHAR
STARTCHAR QUOTATION MARK
ENCODING 34
SWIDTH 576 0
DWIDTH 6 0
BBX 6 11 0 -2
BITMAP
00
28
28
28
00
00
00
00
00
00
00
ENDCHAR
STARTCHAR NUMBER SIGN
ENCODING 35
SWIDTH 576 0
DWIDTH 6 0
BBX 6 11 0 -2
BITMAP
00
28
28
7C
28
28
7C
28
28
00
00
ENDCHAR
STARTCHAR DOLLAR SIGN
ENCODING 36
SWIDTH 576 0
DWIDTH 6 0
BBX 6 11 0 -2
BITMAP
00
10
38
54
50
38
14
54
38
10
00
ENDCHAR
STARTCHAR PERCENT SIGN
ENCODING 37
SWIDTH 576 0
DWIDTH 6 0
BBX 6 11 0 -2
BITMAP
00
48
A8
50
10
20
28
54
48
00
00
ENDCHAR
STARTCHAR AMPERSAND
ENCODING 38
SWIDTH 576 0
DWIDTH 6 0
BBX 6 11 0 -2
BITMAP
00
20
50
50
20
54
48
48
34
00
00
ENDCHAR
STARTCHAR APOSTROPHE
ENCODING 39
SWIDTH 576 0
DWIDTH 6 0
BBX 6 11 0 -2
BITMAP
00
10
10
10
00
00
00
00
00
00
00
ENDCHAR
STARTCHAR LEFT PARENTHESIS
ENCODING 40
SWIDTH 576 0
DWIDTH 6 0
BBX 6 11 0 -2
BITMAP
00
18
20
20
20
20
20
20
20
18
00
ENDCHAR
STARTCHAR RIGHT PARENTHESIS
ENCODING 41
SWIDTH 576 0
DWIDTH 6 0
BBX 6 11 0 -2
BITMAP
00
60
10
10
10
10
10
10
10
60
00
ENDCHAR
STARTCHAR ASTERISK
ENCODING 42
SWIDTH 576 0
DWIDTH 6 0
BBX 6 11 0 -2
BITMAP
00
00
00
28
10
7C
10
28
00
00
00
ENDCHAR
STARTCHAR PLUS SIGN
ENCODING 43
SWIDTH 576 0
DWIDTH 6 0
BBX 6 11 0 -2
BITMAP
00
00
00
10
10
7C
10
10
00
00
00
ENDCHAR
STARTCHAR COMMA
ENCODING 44
SWIDTH 576 0
DWIDTH 6 0
BBX 6 11 0 -2
BITMAP
00
00
00
00
00
00
00
10
10
20
00
ENDCHAR
STARTCHAR HYPHEN-MINUS
ENCODING 45
SWIDTH 576 0
DWIDTH 6 0
BBX 6 11 0 -2
BITMAP
00
00
00
00
00
7C
00
00
00
00
00
ENDCHAR
STARTCHAR FULL STOP
ENCODING 46
SWIDTH 576 0
DWIDTH 6 0
BBX 6 11 0 -2
BITMAP
00
00
00
00
00
00
00
10
10
00
00
ENDCHAR
STARTCHAR SOLIDUS
ENCODING 47
SWIDTH 576 0
DWIDTH 6 0
BBX 6 11 0 -2
BITMAP
00
08
08
10
10
20
20
40
40
00
00
ENDCHAR
STARTCHAR DIGIT ZERO
ENCODING 48
SWIDTH 576 0
DWIDTH 6 0
BBX 6 11 0 -2
BITMAP
00
30
48
48
58
68
48
48
30
00
00
ENDCHAR
STARTCHAR DIGIT ONE
ENCODING 49
SWIDTH 576 0
DWIDTH 6 0
BBX 6 11 0 -2
BITMAP
00
10
30
50
10
10
10
10
10
00
00
ENDCHAR
STARTCHAR DIGIT TWO
ENCODING 50
SWIDTH 576 0
DWIDTH 6 0
BBX 6 11 0 -2
BITMAP
00
30
48
48
08
10
20
40
78
00
00
ENDCHAR
STARTCHAR DIGIT THREE
ENCODING 51
SWIDTH 576 0
DWIDTH 6 0
BBX 6 11 0 -2
BITMAP
00
70
08
08
30
08
08
08
70
00
00
ENDCHAR
STARTCHAR DIGIT FOUR
ENCODING 52
SWIDTH 576 0
DWIDTH 6 0
BBX 6 11 0 -2
BITMAP
00
10
30
30
50
50
78
10
10
00
00
ENDCHAR
STARTCHAR DIGIT FIVE
ENCODING 53
SWIDTH 576 0
DWIDTH 6 0
BBX 6 11 0 -2
BITMAP
00
78
40
40
70
08
08
08
70
00
00
ENDCHAR
STARTCHAR DIGIT SIX
ENCODING 54
SWIDTH 576 0
DWIDTH 6 0
BBX 6 11 0 -2
BITMAP
00
30
40
40
70
48
48
48
30
00
00
ENDCHAR
STARTCHAR DIGIT SEVEN
ENCODING 55
SWIDTH 576 0
DWIDTH 6 0
BBX 6 11 0 -2
BITMAP
00
78
08
08
10
10
20
20
20
00
00
ENDCHAR
STARTCHAR DIGIT EIGHT
ENCODING 56
SWIDTH 576 0
DWIDTH 6 0
BBX 6 11 0 -2
BITMAP
00
30
48
48
30
48
48
48
30
00
00
ENDCHAR
STARTCHAR DIGIT NINE
ENCODING 57
SWIDTH 576 0
DWIDTH 6 0
BBX 6 11 0 -2
BITMAP
00
30
48
48
48
38
08
08
30
00
00
ENDCHAR
STARTCHAR COLON
ENCODING 58
SWIDTH 576 0
DWIDTH 6 0
BBX 6 11 0 -2
BITMAP
00
00
00
10
10
00
00
10
10
00
00
ENDCHAR
STARTCHAR SEMICOLON
ENCODING 59
SWIDTH 576 0
DWIDTH 6 0
BBX 6 11 0 -2
BITMAP
00
00
00
10
10
00
00
10
10
20
00
ENDCHAR
STARTCHAR LESS-THAN SIGN
ENCODING 60
SWIDTH 576 0
DWIDTH 6 0
BBX 6 11 0 -2
BITMAP
00
00
00
08
30
40
30
08
00
00
00
ENDCHAR
STARTCHAR EQUALS SIGN
ENCODING 61
SWIDTH 576 0
DWIDTH 6 0
BBX 6 11 0 -2
BITMAP
00
00
00
00
7C
00
7C
00
00
00
00
ENDCHAR
STARTCHAR GREATER-THAN SIGN
ENCODING 62
SWIDTH 576 0
DWIDTH 6 0
BBX 6 11 0 -2
BITMAP
00
00
00
40
30
08
30
40
00
00
00
ENDCHAR
STARTCHAR QUESTION MARK
ENCODING 63
SWIDTH 576 0
DWIDTH 6 0
BBX 6 11 0 -2
BITMAP
00
30
48
48
10
20
00
20
20
00
00
ENDCHAR
STARTCHAR COMMERCIAL AT
ENCODING 64
SWIDTH 576 0
DWIDTH 6 0
BBX 6 11 0 -2
BITMAP
00
38
44
5C
54
54
4C
40
3C
00
00
ENDCHAR
STARTCHAR LATIN CAPITAL LETTER A
ENCODING 65
SWIDTH 576 0
DWIDTH 6 0
BBX 6 11 0 -2
BITMAP
00
30
30
48
48
78
48
48
48
00
00
ENDCHAR
STARTCHAR LATIN CAPITAL LETTER B
ENCODING 66
SWIDTH 576 0
DWIDTH 6 0
BBX 6 11 0 -2
BITMAP
00
70
48
48
70
48
48
48
70
00
00
ENDCHAR
STARTCHAR LATIN CAPITAL LETTER C
ENCODING 67
SWIDTH 576 0
DWIDTH 6 0
BBX 6 11 0 -2
BITMAP
00
30
48
40
40
40
40
48
30
00
00
ENDCHAR
STARTCHAR LATIN CAPITAL LETTER D
ENCODING 68
SWIDTH 576 0
DWIDTH 6 0
BBX 6 11 0 -2
BITMAP
00
70
48
48
48
48
48
48
70
00
00
ENDCHAR
STARTCHAR LATIN CAPITAL LETTER E
ENCODING 69
SWIDTH 576 0
DWIDTH 6 0
BBX 6 11 0 -2
BITMAP
00
78
40
40
70
40
40
40
78
00
00
ENDCHAR
STARTCHAR LATIN CAPITAL LETTER F
ENCODING 70
SWIDTH 576 0
DWIDTH 6 0
BBX 6 11 0 -2
BITMAP
00
78
40
40
70
40
40
40
40
00
00
ENDCHAR
STARTCHAR LATIN CAPITAL LETTER G
ENCODING 71
SWIDTH 576 0
DWIDTH 6 0
BBX 6 11 0 -2
BITMAP
00
30
48
40
58
48
48
48
30
00
00
ENDCHAR
STARTCHAR LATIN CAPITAL LETTER H
ENCODING 72
SWIDTH 576 0
DWIDTH 6 0
BBX 6 11 0 -2
BITMAP
00
48
48
48
78
48
48
48
48
00
00
ENDCHAR
STARTCHAR LATIN CAPITAL LETTER I
ENCODING 73
SWIDTH 576 0
DWIDTH 6 0
BBX 6 11 0 -2
BITMAP
00
38
10
10
10
10
10
10
38
00
00
ENDCHAR
STARTCHAR LATIN CAPITAL LETTER J
ENCODING 74
SWIDTH 576 0
DWIDTH 6 0
BBX 6 11 0 -2
BITMAP
00
38
08
08
08
08
08
08
30
00
00
ENDCHAR
STARTCHAR LATIN CAPITAL LETTER K
ENCODING 75
SWIDTH 576 0
DWIDTH 6 0
BBX 6 11 0 -2
BITMAP
00
48
48
50
60
60
50
48
48
00
00
ENDCHAR
STARTCHAR LATIN CAPITAL LETTER L
ENCODING 76
SWIDTH 576 0
DWIDTH 6 0
BBX 6 11 0 -2
BITMAP
00
40
40
40
40
40
40
40
78
00
00
ENDCHAR
STARTCHAR LATIN CAPITAL LETTER M
ENCODING 77
SWIDTH 576 0
DWIDTH 6 0
BBX 6 11 0 -2
BITMAP
00
48
58
78
48
48
48
48
48
00
00
ENDCHAR
STARTCHAR LATIN CAPITAL LETTER N
ENCODING 78
SWIDTH 576 0
DWIDTH 6 0
BBX 6 11 0 -2
BITMAP
00
48
48
68
68
58
58
48
48
00
00
ENDCHAR
STARTCHAR LATIN CAPITAL LETTER O
ENCODING 79
SWIDTH 576 0
DWIDTH 6 0
BBX 6 11 0 -2
BITMAP
00
30
48
48
48
48
48
48
30
00
00
ENDCHAR
STARTCHAR LATIN CAPITAL LETTER P
ENCODING 80
SWIDTH 576 0
DWIDTH 6 0
BBX 6 11 0 -2
BITMAP
00
70
48
48
48
70
40
40
40
00
00
ENDCHAR
STARTCHAR LATIN CAPITAL LETTER Q
ENCODING 81
SWIDTH 576 0
DWIDTH 6 0
BBX 6 11 0 -2
BITMAP
00
30
48
48
48
48
48
48
30
18
00
ENDCHAR
STARTCHAR LATIN CAPITAL LETTER R
ENCODING 82
SWIDTH 576 0
DWIDTH 6 0
BBX 6 11 0 -2
BITMAP
00
70
48
48
48
70
48
48
48
00
00
ENDCHAR
STARTCHAR LATIN CAPITAL LETTER S
ENCODING 83
SWIDTH 576 0
DWIDTH 6 0
BBX 6 11 0 -2
BITMAP
00
38
40
40
60
18
08
08
70
00
00
ENDCHAR
STARTCHAR LATIN CAPITAL LETTER T
ENCODING 84
SWIDTH 576 0
DWIDTH 6 0
BBX 6 11 0 -2
BITMAP
00
7C
10
10
10
10
10
10
10
00
00
ENDCHAR
STARTCHAR LATIN CAPITAL LETTER U
ENCODING 85
SWIDTH 576 0
DWIDTH 6 0
BBX 6 11 0 -2
BITMAP
00
48
48
48
48
48
48
48
38
00
00
ENDCHAR
STARTCHAR LATIN CAPITAL LETTER V
ENCODING 86
SWIDTH 576 0
DWIDTH 6 0
BBX 6 11 0 -2
BITMAP
00
48
48
48
48
48
48
30
30
00
00
ENDCHAR
STARTCHAR LATIN CAPITAL LETTER W
ENCODING 87
SWIDTH 576 0
DWIDTH 6 0
BBX 6 11 0 -2
BITMAP
00
48
48
48
48
48
58
78
48
00
00
ENDCHAR
STARTCHAR LATIN CAPITAL LETTER X
ENCODING 88
SWIDTH 576 0
DWIDTH 6 0
BBX 6 11 0 -2
BITMAP
00
48
48
48
30
30
48
48
48
00
00
ENDCHAR
STARTCHAR LATIN CAPITAL LETTER Y
ENCODING 89
SWIDTH 576 0
DWIDTH 6 0
BBX 6 11 0 -2
BITMAP
00
44
44
28
28
10
10
10
10
00
00
ENDCHAR
STARTCHAR LATIN CAPITAL LETTER Z
ENCODING 90
SWIDTH 576 0
DWIDTH 6 0
BBX 6 11 0 -2
BITMAP
00
78
08
10
10
20
20
40
78
00
00
ENDCHAR
STARTCHAR LEFT SQUARE BRACKET
ENCODING 91
SWIDTH 576 0
DWIDTH 6 0
BBX 6 11 0 -2
BITMAP
00
38
20
20
20
20
20
20
20
38
00
ENDCHAR
STARTCHAR REVERSE SOLIDUS
ENCODING 92
SWIDTH 576 0
DWIDTH 6 0
BBX 6 11 0 -2
BITMAP
00
40
40
20
20
10
10
08
08
00
00
ENDCHAR
STARTCHAR RIGHT SQUARE BRACKET
ENCODING 93
SWIDTH 576 0
DWIDTH 6 0
BBX 6 11 0 -2
BITMAP
00
70
10
10
10
10
10
10
10
70
00
ENDCHAR
STARTCHAR CIRCUMFLEX ACCENT
ENCODING 94
SWIDTH 576 0
DWIDTH 6 0
BBX 6 11 0 -2
BITMAP
00
30
30
48
48
00
00
00
00
00
00
ENDCHAR
STARTCHAR LOW LINE
ENCODING 95
SWIDTH 576 0
DWIDTH 6 0
BBX 6 11 0 -2
BITMAP
00
00
00
00
00
00
00
00
7C
00
00
ENDCHAR
STARTCHAR GRAVE ACCENT
ENCODING 96
SWIDTH 576 0
DWIDTH 6 0
BBX 6 11 0 -2
BITMAP
00
30
10
08
00
00
00
00
00
00
00
ENDCHAR
STARTCHAR LATIN SMALL LETTER A
ENCODING 97
SWIDTH 576 0
DWIDTH 6 0
BBX 6 11 0 -2
BITMAP
00
00
00
38
48
48
48
48
38
00
00
ENDCHAR
STARTCHAR LATIN SMALL LETTER B
ENCODING 98
SWIDTH 576 0
DWIDTH 6 0
BBX 6 11 0 -2
BITMAP
00
40
40
70
48
48
48
48
70
00
00
ENDCHAR
STARTCHAR LATIN SMALL LETTER C
ENCODING 99
SWIDTH 576 0
DWIDTH 6 0
BBX 6 11 0 -2
BITMAP
00
00
00
30
48
40
40
48
30
00
00
ENDCHAR
STARTCHAR LATIN SMALL LETTER D
ENCODING 100
SWIDTH 576 0
DWIDTH 6 0
BBX 6 11 0 -2
BITMAP
00
08
08
38
48
48
48
48
38
00
00
ENDCHAR
STARTCHAR LATIN SMALL LETTER E
ENCODING 101
SWIDTH 576 0
DWIDTH 6 0
BBX 6 11 0 -2
BITMAP
00
00
00
30
48
78
40
48
30
00
00
ENDCHAR
STARTCHAR LATIN SMALL LETTER F
ENCODING 102
SWIDTH 576 0
DWIDTH 6 0
BBX 6 11 0 -2
BITMAP
00
18
20
78
20
20
20
20
20
00
00
ENDCHAR
STARTCHAR LATIN SMALL LETTER G
ENCODING 103
SWIDTH 576 0
DWIDTH 6 0
BBX 6 11 0 -2
BITMAP
00
00
00
38
48
48
48
48
38
08
30
ENDCHAR
STARTCHAR LATIN SMALL LETTER H
ENCODING 104
SWIDTH 576 0
DWIDTH 6 0
BBX 6 11 0 -2
BITMAP
00
40
40
58
68
48
48
48
48
00
00
ENDCHAR
STARTCHAR LATIN SMALL LETTER I
ENCODING 105
SWIDTH 576 0
DWIDTH 6 0
BBX 6 11 0 -2
BITMAP
10
10
00
30
10
10
10
10
10
00
00
ENDCHAR
STARTCHAR LATIN SMALL LETTER J
ENCODING 106
SWIDTH 576 0
DWIDTH 6 0
BBX 6 11 0 -2
BITMAP
10
10
00
30
10
10
10
10
10
10
60
ENDCHAR
STARTCHAR LATIN SMALL LETTER K
ENCODING 107
SWIDTH 576 0
DWIDTH 6 0
BBX 6 11 0 -2
BITMAP
00
40
40
48
50
60
60
50
48
00
00
ENDCHAR
STARTCHAR LATIN SMALL LETTER L
ENCODING 108
SWIDTH 576 0
DWIDTH 6 0
BBX 6 11 0 -2
BITMAP
00
30
10
10
10
10
10
10
10
00
00
ENDCHAR
STARTCHAR LATIN SMALL LETTER M
ENCODING 109
SWIDTH 576 0
DWIDTH 6 0
BBX 6 11 0 -2
BITMAP
00
00
00
48
58
78
48
48
48
00
00
ENDCHAR
STARTCHAR LATIN SMALL LETTER N
ENCODING 110
SWIDTH 576 0
DWIDTH 6 0
BBX 6 11 0 -2
BITMAP
00
00
00
58
68
48
48
48
48
00
00
ENDCHAR
STARTCHAR LATIN SMALL LETTER O
ENCODING 111
SWIDTH 576 0
DWIDTH 6 0
BBX 6 11 0 -2
BITMAP
00
00
00
30
48
48
48
48
30
00
00
ENDCHAR
STARTCHAR LATIN SMALL LETTER P
ENCODING 112
SWIDTH 576 0
DWIDTH 6 0
BBX 6 11 0 -2
BITMAP
00
00
00
70
48
48
48
48
70
40
40
ENDCHAR
STARTCHAR LATIN SMALL LETTER Q
ENCODING 113
SWIDTH 576 0
DWIDTH 6 0
BBX 6 11 0 -2
BITMAP
00
00
00
38
48
48
48
48
38
08
08
ENDCHAR
STARTCHAR LATIN SMALL LETTER R
ENCODING 114
SWIDTH 576 0
DWIDTH 6 0
BBX 6 11 0 -2
BITMAP
00
00
00
58
60
40
40
40
40
00
00
ENDCHAR
STARTCHAR LATIN SMALL LETTER S
ENCODING 115
SWIDTH 576 0
DWIDTH 6 0
BBX 6 11 0 -2
BITMAP
00
00
00
38
40
60
18
08
70
00
00
ENDCHAR
STARTCHAR LATIN SMALL LETTER T
ENCODING 116
SWIDTH 576 0
DWIDTH 6 0
BBX 6 11 0 -2
BITMAP
00
20
20
78
20
20
20
20
18
00
00
ENDCHAR
STARTCHAR LATIN SMALL LETTER U
ENCODING 117
SWIDTH 576 0
DWIDTH 6 0
BBX 6 11 0 -2
BITMAP
00
00
00
48
48
48
48
48
38
00
00
ENDCHAR
STARTCHAR LATIN SMALL LETTER V
ENCODING 118
SWIDTH 576 0
DWIDTH 6 0
BBX 6 11 0 -2
BITMAP
00
00
00
48
48
48
48
30
30
00
00
ENDCHAR
STARTCHAR LATIN SMALL LETTER W
ENCODING 119
SWIDTH 576 0
DWIDTH 6 0
BBX 6 11 0 -2
BITMAP
00
00
00
48
48
48
58
78
48
00
00
ENDCHAR
STARTCHAR LATIN SMALL LETTER X
ENCODING 120
SWIDTH 576 0
DWIDTH 6 0
BBX 6 11 0 -2
BITMAP
00
00
00
48
48
30
30
48
48
00
00
ENDCHAR
STARTCHAR LATIN SMALL LETTER Y
ENCODING 121
SWIDTH 576 0
DWIDTH 6 0
BBX 6 11 0 -2
BITMAP
00
00
00
48
48
48
48
48
38
08
30
ENDCHAR
STARTCHAR LATIN SMALL LETTER Z
ENCODING 122
SWIDTH 576 0
DWIDTH 6 0
BBX 6 11 0 -2
BITMAP
00
00
00
78
08
10
20
40
78
00
00
ENDCHAR
STARTCHAR LEFT CURLY BRACKET
ENCODING 123
SWIDTH 576 0
DWIDTH 6 0
BBX 6 11 0 -2
BITMAP
00
18
20
20
20
C0
20
20
20
18
00
ENDCHAR
STARTCHAR VERTICAL LINE
ENCODING 124
SWIDTH 576 0
DWIDTH 6 0
BBX 6 11 0 -2
BITMAP
00
10
10
10
10
10
10
10
10
10
00
ENDCHAR
STARTCHAR RIGHT CURLY BRACKET
ENCODING 125
SWIDTH 576 0
DWIDTH 6 0
BBX 6 11 0 -2
BITMAP
00
60
10
10
10
0C
10
10
10
60
00
ENDCHAR
STARTCHAR TILDE
ENCODING 126
SWIDTH 576 0
DWIDTH 6 0
BBX 6 11 0 -2
BITMAP
00
00
00
20
54
54
08
00
00
00
00
ENDCHAR
STARTCHAR NO-BREAK SPACE
ENCODING 160
SWIDTH 576 0
DWIDTH 6 0
BBX 6 11 0 -2
BITMAP
00
00
00
00
00
00
00
44
7C
00
00
ENDCHAR
STARTCHAR INVERTED EXCLAMATION MARK
ENCODING 161
SWIDTH 576 0
DWIDTH 6 0
BBX 6 11 0 -2
BITMAP
00
10
10
00
10
10
10
10
10
00
00
ENDCHAR
STARTCHAR CENT SIGN
ENCODING 162
SWIDTH 576 0
DWIDTH 6 0
BBX 6 11 0 -2
BITMAP
00
00
10
38
50
50
50
50
38
10
00
ENDCHAR
STARTCHAR POUND SIGN
ENCODING 163
SWIDTH 576 0
DWIDTH 6 0
BBX 6 11 0 -2
BITMAP
00
18
24
24
70
20
20
44
7C
00
00
ENDCHAR
STARTCHAR CURRENCY SIGN
ENCODING 164
SWIDTH 576 0
DWIDTH 6 0
BBX 6 11 0 -2
BITMAP
00
00
00
44
38
28
38
44
00
00
00
ENDCHAR
STARTCHAR YEN SIGN
ENCODING 165
SWIDTH 576 0
DWIDTH 6 0
BBX 6 11 0 -2
BITMAP
00
44
44
28
7C
10
7C
10
10
00
00
ENDCHAR
STARTCHAR BROKEN BAR
ENCODING 166
SWIDTH 576 0
DWIDTH 6 0
BBX 6 11 0 -2
BITMAP
00
10
10
10
00
00
10
10
10
00
00
ENDCHAR
STARTCHAR SECTION SIGN
ENCODING 167
SWIDTH 576 0
DWIDTH 6 0
BBX 6 11 0 -2
BITMAP
00
30
48
40
70
48
48
38
08
48
30
ENDCHAR
STARTCHAR DIAERESIS
ENCODING 168
SWIDTH 576 0
DWIDTH 6 0
BBX 6 11 0 -2
BITMAP
00
28
00
00
00
00
00
00
00
00
00
ENDCHAR
STARTCHAR COPYRIGHT SIGN
ENCODING 169
SWIDTH 576 0
DWIDTH 6 0
BBX 6 11 0 -2
BITMAP
00
78
84
B4
A4
A4
B4
84
78
00
00
ENDCHAR
STARTCHAR FEMININE ORDINAL INDICATOR
ENCODING 170
SWIDTH 576 0
DWIDTH 6 0
BBX 6 11 0 -2
BITMAP
38
48
48
38
00
78
00
00
00
00
00
ENDCHAR
STARTCHAR LEFT-POINTING DOUBLE ANGLE QUOTATION MARK
ENCODING 171
SWIDTH 576 0
DWIDTH 6 0
BBX 6 11 0 -2
BITMAP
00
00
00
24
48
48
24
00
00
00
00
ENDCHAR
STARTCHAR NOT SIGN
ENCODING 172
SWIDTH 576 0
DWIDTH 6 0
BBX 6 11 0 -2
BITMAP
00
00
00
00
00
7C
04
04
04
00
00
ENDCHAR
STARTCHAR SOFT HYPHEN
ENCODING 173
SWIDTH 576 0
DWIDTH 6 0
BBX 6 11 0 -2
BITMAP
00
00
00
00
00
78
00
00
00
00
00
ENDCHAR
STARTCHAR REGISTERED SIGN
ENCODING 174
SWIDTH 576 0
DWIDTH 6 0
BBX 6 11 0 -2
BITMAP
00
78
84
B4
AC
B4
AC
84
78
00
00
ENDCHAR
STARTCHAR MACRON
ENCODING 175
SWIDTH 576 0
DWIDTH 6 0
BBX 6 11 0 -2
BITMAP
00
78
00
00
00
00
00
00
00
00
00
ENDCHAR
STARTCHAR DEGREE SIGN
ENCODING 176
SWIDTH 576 0
DWIDTH 6 0
BBX 6 11 0 -2
BITMAP
00
30
48
48
30
00
00
00
00
00
00
ENDCHAR
STARTCHAR PLUS-MINUS SIGN
ENCODING 177
SWIDTH 576 0
DWIDTH 6 0
BBX 6 11 0 -2
BITMAP
00
00
00
10
10
7C
10
10
7C
00
00
ENDCHAR
STARTCHAR SUPERSCRIPT TWO
ENCODING 178
SWIDTH 576 0
DWIDTH 6 0
BBX 6 11 0 -2
BITMAP
00
30
48
10
20
78
00
00
00
00
00
ENDCHAR
STARTCHAR SUPERSCRIPT THREE
ENCODING 179
SWIDTH 576 0
DWIDTH 6 0
BBX 6 11 0 -2
BITMAP
00
70
08
30
08
70
00
00
00
00
00
ENDCHAR
STARTCHAR ACUTE ACCENT
ENCODING 180
SWIDTH 576 0
DWIDTH 6 0
BBX 6 11 0 -2
BITMAP
00
10
20
00
00
00
00
00
00
00
00
ENDCHAR
STARTCHAR MICRO SIGN
ENCODING 181
SWIDTH 576 0
DWIDTH 6 0
BBX 6 11 0 -2
BITMAP
00
00
00
48
48
48
48
48
78
44
40
ENDCHAR
STARTCHAR PILCROW SIGN
ENCODING 182
SWIDTH 576 0
DWIDTH 6 0
BBX 6 11 0 -2
BITMAP
00
3C
74
74
74
34
14
14
14
00
00
ENDCHAR
STARTCHAR MIDDLE DOT
ENCODING 183
SWIDTH 576 0
DWIDTH 6 0
BBX 6 11 0 -2
BITMAP
00
00
00
00
00
10
10
00
00
00
00
ENDCHAR
STARTCHAR CEDILLA
ENCODING 184
SWIDTH 576 0
DWIDTH 6 0
BBX 6 11 0 -2
BITMAP
00
00
00
00
00
00
00
00
00
10
20
ENDCHAR
STARTCHAR SUPERSCRIPT ONE
ENCODING 185
SWIDTH 576 0
DWIDTH 6 0
BBX 6 11 0 -2
BITMAP
00
10
30
10
10
10
00
00
00
00
00
ENDCHAR
STARTCHAR MASCULINE ORDINAL INDICATOR
ENCODING 186
SWIDTH 576 0
DWIDTH 6 0
BBX 6 11 0 -2
BITMAP
30
48
48
30
00
78
00
00
00
00
00
ENDCHAR
STARTCHAR RIGHT-POINTING DOUBLE ANGLE QUOTATION MARK
ENCODING 187
SWIDTH 576 0
DWIDTH 6 0
BBX 6 11 0 -2
BITMAP
00
00
00
48
24
24
48
00
00
00
00
ENDCHAR
STARTCHAR VULGAR FRACTION ONE QUARTER
ENCODING 188
SWIDTH 576 0
DWIDTH 6 0
BBX 6 11 0 -2
BITMAP
00
40
C0
44
48
54
2C
54
1C
04
00
ENDCHAR
STARTCHAR VULGAR FRACTION ONE HALF
ENCODING 189
SWIDTH 576 0
DWIDTH 6 0
BBX 6 11 0 -2
BITMAP
00
40
C0
44
48
58
34
44
08
1C
00
ENDCHAR
STARTCHAR VULGAR FRACTION THREE QUARTERS
ENCODING 190
SWIDTH 576 0
DWIDTH 6 0
BBX 6 11 0 -2
BITMAP
00
C0
20
C4
28
D4
2C
54
1C
04
00
ENDCHAR
STARTCHAR INVERTED QUESTION MARK
ENCODING 191
SWIDTH 576 0
DWIDTH 6 0
BBX 6 11 0 -2
BITMAP
00
20
20
00
20
10
48
48
30
00
00
ENDCHAR
STARTCHAR LATIN CAPITAL LETTER A WITH GRAVE
ENCODING 192
SWIDTH 576 0
DWIDTH 6 0
BBX 6 11 0 -2
BITMAP
20
10
30
30
48
48
78
48
48
00
00
ENDCHAR
STARTCHAR LATIN CAPITAL LETTER A WITH ACUTE
ENCODING 193
SWIDTH 576 0
DWIDTH 6 0
BBX 6 11 0 -2
BITMAP
10
20
30
30
48
48
78
48
48
00
00
ENDCHAR
STARTCHAR LATIN CAPITAL LETTER A WITH CIRCUMFLEX
ENCODING 194
SWIDTH 576 0
DWIDTH 6 0
BBX 6 11 0 -2
BITMAP
10
28
30
30
48
48
78
48
48
00
00
ENDCHAR
STARTCHAR LATIN CAPITAL LETTER A WITH TILDE
ENCODING 195
SWIDTH 576 0
DWIDTH 6 0
BBX 6 11 0 -2
BITMAP
28
50
30
30
48
48
78
48
48
00
00
ENDCHAR
STARTCHAR LATIN CAPITAL LETTER A WITH DIAERESIS
ENCODING 196
SWIDTH 576 0
DWIDTH 6 0
BBX 6 11 0 -2
BITMAP
48
00
30
30
48
48
78
48
48
00
00
ENDCHAR
STARTCHAR LATIN CAPITAL LETTER A WITH RING ABOVE
ENCODING 197
SWIDTH 576 0
DWIDTH 6 0
BBX 6 11 0 -2
BITMAP
30
48
30
30
48
48
78
48
48
00
00
ENDCHAR
STARTCHAR LATIN CAPITAL LETTER AE
ENCODING 198
SWIDTH 576 0
DWIDTH 6 0
BBX 6 11 0 -2
BITMAP
00
1C
30
30
5C
50
70
90
9C
00
00
ENDCHAR
STARTCHAR LATIN CAPITAL LETTER C WITH CEDILLA
ENCODING 199
SWIDTH 576 0
DWIDTH 6 0
BBX 6 11 0 -2
BITMAP
00
30
48
40
40
40
40
48
30
10
20
ENDCHAR
STARTCHAR LATIN CAPITAL LETTER E WITH GRAVE
ENCODING 200
SWIDTH 576 0
DWIDTH 6 0
BBX 6 11 0 -2
BITMAP
20
10
78
40
40
70
40
40
78
00
00
ENDCHAR
STARTCHAR LATIN CAPITAL LETTER E WITH ACUTE
ENCODING 201
SWIDTH 576 0
DWIDTH 6 0
BBX 6 11 0 -2
BITMAP
10
20
78
40
40
70
40
40
78
00
00
ENDCHAR
STARTCHAR LATIN CAPITAL LETTER E WITH CIRCUMFLEX
ENCODING 202
SWIDTH 576 0
DWIDTH 6 0
BBX 6 11 0 -2
BITMAP
10
28
78
40
40
70
40
40
78
00
00
ENDCHAR
STARTCHAR LATIN CAPITAL LETTER E WITH DIAERESIS
ENCODING 203
SWIDTH 576 0
DWIDTH 6 0
BBX 6 11 0 -2
BITMAP
48
00
78
40
40
70
40
40
78
00
00
ENDCHAR
STARTCHAR LATIN CAPITAL LETTER I WITH GRAVE
ENCODING 204
SWIDTH 576 0
DWIDTH 6 0
BBX 6 11 0 -2
BITMAP
20
10
38
10
10
10
10
10
38
00
00
ENDCHAR
STARTCHAR LATIN CAPITAL LETTER I WITH ACUTE
ENCODING 205
SWIDTH 576 0
DWIDTH 6 0
BBX 6 11 0 -2
BITMAP
08
10
38
10
10
10
10
10
38
00
00
ENDCHAR
STARTCHAR LATIN CAPITAL LETTER I WITH CIRCUMFLEX
ENCODING 206
SWIDTH 576 0
DWIDTH 6 0
BBX 6 11 0 -2
BITMAP
10
28
38
10
10
10
10
10
38
00
00
ENDCHAR
STARTCHAR LATIN CAPITAL LETTER I WITH DIAERESIS
ENCODING 207
SWIDTH 576 0
DWIDTH 6 0
BBX 6 11 0 -2
BITMAP
28
00
38
10
10
10
10
10
38
00
00
ENDCHAR
STARTCHAR LATIN CAPITAL LETTER ETH
ENCODING 208
SWIDTH 576 0
DWIDTH 6 0
BBX 6 11 0 -2
BITMAP
00
70
48
48
48
E8
48
48
70
00
00
ENDCHAR
STARTCHAR LATIN CAPITAL LETTER N WITH TILDE
ENCODING 209
SWIDTH 576 0
DWIDTH 6 0
BBX 6 11 0 -2
BITMAP
28
50
48
68
68
58
58
48
48
00
00
ENDCHAR
STARTCHAR LATIN CAPITAL LETTER O WITH GRAVE
ENCODING 210
SWIDTH 576 0
DWIDTH 6 0
BBX 6 11 0 -2
BITMAP
20
10
30
48
48
48
48
48
30
00
00
ENDCHAR
STARTCHAR LATIN CAPITAL LETTER O WITH ACUTE
ENCODING 211
SWIDTH 576 0
DWIDTH 6 0
BBX 6 11 0 -2
BITMAP
10
20
30
48
48
48
48
48
30
00
00
ENDCHAR
STARTCHAR LATIN CAPITAL LETTER O WITH CIRCUMFLEX
ENCODING 212
SWIDTH 576 0
DWIDTH 6 0
BBX 6 11 0 -2
BITMAP
10
28
30
48
48
48
48
48
30
00
00
ENDCHAR
STARTCHAR LATIN CAPITAL LETTER O WITH TILDE
ENCODING 213
SWIDTH 576 0
DWIDTH 6 0
BBX 6 11 0 -2
BITMAP
28
50
30
48
48
48
48
48
30
00
00
ENDCHAR
STARTCHAR LATIN CAPITAL LETTER O WITH DIAERESIS
ENCODING 214
SWIDTH 576 0
DWIDTH 6 0
BBX 6 11 0 -2
BITMAP
48
00
30
48
48
48
48
48
30
00
00
ENDCHAR
STARTCHAR MULTIPLICATION SIGN
ENCODING 215
SWIDTH 576 0
DWIDTH 6 0
BBX 6 11 0 -2
BITMAP
00
00
00
00
28
10
28
00
00
00
00
ENDCHAR
STARTCHAR LATIN CAPITAL LETTER O WITH STROKE
ENCODING 216
SWIDTH 576 0
DWIDTH 6 0
BBX 6 11 0 -2
BITMAP
00
34
48
58
58
68
68
48
B0
00
00
ENDCHAR
STARTCHAR LATIN CAPITAL LETTER U WITH GRAVE
ENCODING 217
SWIDTH 576 0
DWIDTH 6 0
BBX 6 11 0 -2
BITMAP
20
10
48
48
48
48
48
48
38
00
00
ENDCHAR
STARTCHAR LATIN CAPITAL LETTER U WITH ACUTE
ENCODING 218
SWIDTH 576 0
DWIDTH 6 0
BBX 6 11 0 -2
BITMAP
10
20
48
48
48
48
48
48
38
00
00
ENDCHAR
STARTCHAR LATIN CAPITAL LETTER U WITH CIRCUMFLEX
ENCODING 219
SWIDTH 576 0
DWIDTH 6 0
BBX 6 11 0 -2
BITMAP
10
28
48
48
48
48
48
48
38
00
00
ENDCHAR
STARTCHAR LATIN CAPITAL LETTER U WITH DIAERESIS
ENCODING 220
SWIDTH 576 0
DWIDTH 6 0
BBX 6 11 0 -2
BITMAP
48
00
48
48
48
48
48
48
38
00
00
ENDCHAR
STARTCHAR LATIN CAPITAL LETTER Y WITH ACUTE
ENCODING 221
SWIDTH 576 0
DWIDTH 6 0
BBX 6 11 0 -2
BITMAP
08
10
44
44
28
28
10
10
10
00
00
ENDCHAR
STARTCHAR LATIN CAPITAL LETTER THORN
ENCODING 222
SWIDTH 576 0
DWIDTH 6 0
BBX 6 11 0 -2
BITMAP
00
40
40
70
48
48
70
40
40
00
00
ENDCHAR
STARTCHAR LATIN SMALL LETTER SHARP S
ENCODING 223
SWIDTH 576 0
DWIDTH 6 0
BBX 6 11 0 -2
BITMAP
00
30
48
50
50
48
48
48
50
00
00
ENDCHAR
STARTCHAR LATIN SMALL LETTER A WITH GRAVE
ENCODING 224
SWIDTH 576 0
DWIDTH 6 0
BBX 6 11 0 -2
BITMAP
20
10
00
38
48
48
48
48
38
00
00
ENDCHAR
STARTCHAR LATIN SMALL LETTER A WITH ACUTE
ENCODING 225
SWIDTH 576 0
DWIDTH 6 0
BBX 6 11 0 -2
BITMAP
10
20
00
38
48
48
48
48
38
00
00
ENDCHAR
STARTCHAR LATIN SMALL LETTER A WITH CIRCUMFLEX
ENCODING 226
SWIDTH 576 0
DWIDTH 6 0
BBX 6 11 0 -2
BITMAP
10
28
00
38
48
48
48
48
38
00
00
ENDCHAR
STARTCHAR LATIN SMALL LETTER A WITH TILDE
ENCODING 227
SWIDTH 576 0
DWIDTH 6 0
BBX 6 11 0 -2
BITMAP
28
50
00
38
48
48
48
48
38
00
00
ENDCHAR
STARTCHAR LATIN SMALL LETTER A WITH DIAERESIS
ENCODING 228
SWIDTH 576 0
DWIDTH 6 0
BBX 6 11 0 -2
BITMAP
00
48
00
38
48
48
48
48
38
00
00
ENDCHAR
STARTCHAR LATIN SMALL LETTER A WITH RING ABOVE
ENCODING 229
SWIDTH 576 0
DWIDTH 6 0
BBX 6 11 0 -2
BITMAP
30
48
30
38
48
48
48
48
38
00
00
ENDCHAR
STARTCHAR LATIN SMALL LETTER AE
ENCODING 230
SWIDTH 576 0
DWIDTH 6 0
BBX 6 11 0 -2
BITMAP
00
00
00
6C
14
34
58
50
6C
00
00
ENDCHAR
STARTCHAR LATIN SMALL LETTER C WITH CEDILLA
ENCODING 231
SWIDTH 576 0
DWIDTH 6 0
BBX 6 11 0 -2
BITMAP
00
00
00
30
48
40
40
48
30
10
20
ENDCHAR
STARTCHAR LATIN SMALL LETTER E WITH GRAVE
ENCODING 232
SWIDTH 576 0
DWIDTH 6 0
BBX 6 11 0 -2
BITMAP
20
10
00
30
48
78
40
48
30
00
00
ENDCHAR
STARTCHAR LATIN SMALL LETTER E WITH ACUTE
ENCODING 233
SWIDTH 576 0
DWIDTH 6 0
BBX 6 11 0 -2
BITMAP
10
20
00
30
48
78
40
48
30
00
00
ENDCHAR
STARTCHAR LATIN SMALL LETTER E WITH CIRCUMFLEX
ENCODING 234
SWIDTH 576 0
DWIDTH 6 0
BBX 6 11 0 -2
BITMAP
10
28
00
30
48
78
40
48
30
00
00
ENDCHAR
STARTCHAR LATIN SMALL LETTER E WITH DIAERESIS
ENCODING 235
SWIDTH 576 0
DWIDTH 6 0
BBX 6 11 0 -2
BITMAP
00
48
00
30
48
78
40
48
30
00
00
ENDCHAR
STARTCHAR LATIN SMALL LETTER I WITH GRAVE
ENCODING 236
SWIDTH 576 0
DWIDTH 6 0
BBX 6 11 0 -2
BITMAP
20
10
00
30
10
10
10
10
10
00
00
ENDCHAR
STARTCHAR LATIN SMALL LETTER I WITH ACUTE
ENCODING 237
SWIDTH 576 0
DWIDTH 6 0
BBX 6 11 0 -2
BITMAP
08
10
00
30
10
10
10
10
10
00
00
ENDCHAR
STARTCHAR LATIN SMALL LETTER I WITH CIRCUMFLEX
ENCODING 238
SWIDTH 576 0
DWIDTH 6 0
BBX 6 11 0 -2
BITMAP
10
28
00
30
10
10
10
10
10
00
00
ENDCHAR
STARTCHAR LATIN SMALL LETTER I WITH DIAERESIS
ENCODING 239
SWIDTH 576 0
DWIDTH 6 0
BBX 6 11 0 -2
BITMAP
00
28
00
30
10
10
10
10
10
00
00
ENDCHAR
STARTCHAR LATIN SMALL LETTER ETH
ENCODING 240
SWIDTH 576 0
DWIDTH 6 0
BBX 6 11 0 -2
BITMAP
50
20
50
30
48
48
48
48
30
00
00
ENDCHAR
STARTCHAR LATIN SMALL LETTER N WITH TILDE
ENCODING 241
SWIDTH 576 0
DWIDTH 6 0
BBX 6 11 0 -2
BITMAP
28
50
00
58
68
48
48
48
48
00
00
ENDCHAR
STARTCHAR LATIN SMALL LETTER O WITH GRAVE
ENCODING 242
SWIDTH 576 0
DWIDTH 6 0
BBX 6 11 0 -2
BITMAP
20
10
00
30
48
48
48
48
30
00
00
ENDCHAR
STARTCHAR LATIN SMALL LETTER O WITH ACUTE
ENCODING 243
SWIDTH 576 0
DWIDTH 6 0
BBX 6 11 0 -2
BITMAP
10
20
00
30
48
48
48
48
30
00
00
ENDCHAR
STARTCHAR LATIN SMALL LETTER O WITH CIRCUMFLEX
ENCODING 244
SWIDTH 576 0
DWIDTH 6 0
BBX 6 11 0 -2
BITMAP
10
28
00
30
48
48
48
48
30
00
00
ENDCHAR
STARTCHAR LATIN SMALL LETTER O WITH TILDE
ENCODING 245
SWIDTH 576 0
DWIDTH 6 0
BBX 6 11 0 -2
BITMAP
28
50
00
30
48
48
48
48
30
00
00
ENDCHAR
STARTCHAR LATIN SMALL LETTER O WITH DIAERESIS
ENCODING 246
SWIDTH 576 0
DWIDTH 6 0
BBX 6 11 0 -2
BITMAP
00
48
00
30
48
48
48
48
30
00
00
ENDCHAR
STARTCHAR DIVISION SIGN
ENCODING 247
SWIDTH 576 0
DWIDTH 6 0
BBX 6 11 0 -2
BITMAP
00
00
10
10
00
7C
00
10
10
00
00
ENDCHAR
STARTCHAR LATIN SMALL LETTER O WITH STROKE
ENCODING 248
SWIDTH 576 0
DWIDTH 6 0
BBX 6 11 0 -2
BITMAP
00
00
00
34
48
58
68
48
B0
00
00
ENDCHAR
STARTCHAR LATIN SMALL LETTER U WITH GRAVE
ENCODING 249
SWIDTH 576 0
DWIDTH 6 0
BBX 6 11 0 -2
BITMAP
20
10
00
48
48
48
48
48
38
00
00
ENDCHAR
STARTCHAR LATIN SMALL LETTER U WITH ACUTE
ENCODING 250
SWIDTH 576 0
DWIDTH 6 0
BBX 6 11 0 -2
BITMAP
10
20
00
48
48
48
48
48
38
00
00
ENDCHAR
STARTCHAR LATIN SMALL LETTER U WITH CIRCUMFLEX
ENCODING 251
SWIDTH 576 0
DWIDTH 6 0
BBX 6 11 0 -2
BITMAP
10
28
00
48
48
48
48
48
38
00
00
ENDCHAR
STARTCHAR LATIN SMALL LETTER U WITH DIAERESIS
ENCODING 252
SWIDTH 576 0
DWIDTH 6 0
BBX 6 11 0 -2
BITMAP
48
00
00
48
48
48
48
48
38
00
00
ENDCHAR
STARTCHAR LATIN SMALL LETTER Y WITH ACUTE
ENCODING 253
SWIDTH 576 0
DWIDTH 6 0
BBX 6 11 0 -2
BITMAP
10
20
00
48
48
48
48
48
38
08
30
ENDCHAR
STARTCHAR LATIN SMALL LETTER THORN
ENCODING 254
SWIDTH 576 0
DWIDTH 6 0
BBX 6 11 0 -2
BITMAP
00
40
40
70
48
48
48
48
70
40
00
ENDCHAR
STARTCHAR LATIN SMALL LETTER Y WITH DIAERESIS
ENCODING 255
SWIDTH 576 0
DWIDTH 6 0
BBX 6 11 0 -2
BITMAP
00
48
00
48
48
48
48
48
38
08
30
ENDCHAR
ENDFONT
